<?xml version="1.0" encoding="utf-8"?>
<!-- Generator: Adobe Illustrator 17.1.0, SVG Export Plug-In . SVG Version: 6.00 Build 0)  -->
<!DOCTYPE svg PUBLIC "-//W3C//DTD SVG 1.1//EN" "http://www.w3.org/Graphics/SVG/1.1/DTD/svg11.dtd">
<svg version="1.1" id="logo" xmlns="http://www.w3.org/2000/svg" xmlns:xlink="http://www.w3.org/1999/xlink" x="0px" y="0px"
	 width="148.6px" height="31.4px" viewBox="0 -3.8 148.6 31.4" enable-background="new 0 -3.8 148.6 31.4" xml:space="preserve">
<path fill="#1B75BB" d="M37.9,16.4V7.3h-1.7c-0.2,0-0.3,0.1-0.3,0.3v0.7h-1.7V6.6c0-0.4,0.1-0.6,0.2-0.8c0.1-0.1,0.4-0.2,0.8-0.2
	h7.5c0.4,0,0.6,0.1,0.8,0.2c0.1,0.1,0.2,0.4,0.2,0.8v1.7h-1.7V7.6c0-0.2-0.1-0.3-0.3-0.3h-1.7v9.1H37.9z"/>
<path fill="#929497" d="M45.4,7h-1V5.7h4.7c1.9,0,3.2,1.2,3.2,3.1c0,1.8-1.2,2.7-1.9,2.8v0c0,0,0.3,0.1,0.5,0.5l1.3,2.6
	c0.2,0.3,0.4,0.3,0.8,0.3h0.2v1.3h-0.7c-0.8,0-1.1-0.1-1.5-0.8l-1.5-2.9c-0.3-0.5-0.5-0.6-1.1-0.6h-1.4v4.3h-1.5V7z M48.9,10.8
	c1.2,0,1.8-0.7,1.8-1.9C50.7,7.7,50,7,48.9,7h-2v3.8H48.9z"/>
<path fill="#929497" d="M53.8,15.1H54c0.3,0,0.4-0.1,0.5-0.3l3.4-9.1h1.6l3.4,9.1c0.1,0.3,0.2,0.3,0.5,0.3h0.2v1.3h-0.9
	c-0.8,0-1-0.2-1.2-0.9l-0.8-2.2h-3.9l-0.8,2.2c-0.3,0.7-0.5,0.9-1.3,0.9h-0.8V15.1z M60.3,12l-1.2-3.3c-0.2-0.6-0.4-1.5-0.4-1.5h0
	c0,0-0.2,0.9-0.4,1.5L57.1,12H60.3z"/>
<path fill="#929497" d="M76.3,13.9c0,0,1.1,1.3,2.7,1.3c1,0,1.8-0.6,1.8-1.6c0-2.2-5.2-1.9-5.2-5.2c0-1.6,1.4-2.9,3.4-2.9
	c1.1,0,3.1,0.5,3.1,2v0.9h-1.4V7.8c0-0.6-0.8-1-1.7-1c-1.2,0-1.9,0.6-1.9,1.4c0,2.2,5.2,1.7,5.2,5.2c0,1.6-1.3,3.1-3.4,3.1
	c-2.3,0-3.6-1.6-3.6-1.6L76.3,13.9z"/>
<path fill="#929497" d="M64.4,15.1h0.7c0.2,0,0.3-0.1,0.3-0.3V5.7h1.4l4.8,6.8c0.4,0.6,0.9,1.5,0.9,1.5h0c0,0-0.1-0.9-0.1-1.5V6.7
	c0-0.7,0.3-1,1-1h1.5V7h-0.7c-0.2,0-0.3,0.1-0.3,0.3v9.1h-1.4l-4.8-6.8c-0.4-0.6-0.9-1.5-0.9-1.5h0c0,0,0.1,0.9,0.1,1.5v5.8
	c0,0.7-0.3,1-1,1h-1.5V15.1z"/>
<path fill="#929497" d="M84.7,7.3c0-0.2-0.1-0.3-0.3-0.3h-0.7V5.7h1.5c0.7,0,1,0.3,1,1v8.1c0,0.2,0.1,0.3,0.3,0.3h3
	c0.2,0,0.3-0.1,0.3-0.3v-0.7h1.4v1.4c0,0.7-0.3,1-1,1h-4.6c-0.7,0-1-0.3-1-1V7.3z"/>
<path fill="#929497" d="M91.8,15.1H92c0.3,0,0.4-0.1,0.5-0.3l3.4-9.1h1.6l3.4,9.1c0.1,0.3,0.2,0.3,0.5,0.3h0.2v1.3h-0.9
	c-0.8,0-1-0.2-1.2-0.9l-0.8-2.2h-3.9l-0.8,2.2c-0.3,0.7-0.5,0.9-1.3,0.9h-0.8V15.1z M98.2,12l-1.2-3.3c-0.2-0.6-0.4-1.5-0.4-1.5h0
	c0,0-0.2,0.9-0.4,1.5L95,12H98.2z"/>
<path fill="#929497" d="M104.4,7h-2.2c-0.2,0-0.3,0.1-0.3,0.3V8h-1.4V6.6c0-0.7,0.2-0.9,0.9-0.9h7.4c0.7,0,0.9,0.2,0.9,0.9V8h-1.4
	V7.3c0-0.2-0.1-0.3-0.3-0.3H106v9.4h-1.5V7z"/>
<path fill="#929497" d="M115.7,5.5c3.1,0,5.5,2.4,5.5,5.5c0,3.2-2.4,5.6-5.5,5.6c-3.1,0-5.5-2.5-5.5-5.6
	C110.2,7.9,112.6,5.5,115.7,5.5z M115.7,15.1c2.2,0,3.9-1.8,3.9-4.2c0-2.3-1.8-4.1-3.9-4.1c-2.2,0-3.9,1.8-3.9,4.1
	C111.8,13.3,113.6,15.1,115.7,15.1z"/>
<path fill="#929497" d="M123.3,7h-1V5.7h4.7c1.9,0,3.2,1.2,3.2,3.1c0,1.8-1.2,2.7-1.9,2.8v0c0,0,0.3,0.1,0.5,0.5l1.3,2.6
	c0.2,0.3,0.4,0.3,0.8,0.3h0.2v1.3h-0.7c-0.8,0-1.1-0.1-1.5-0.8l-1.5-2.9c-0.3-0.5-0.5-0.6-1.1-0.6h-1.4v4.3h-1.5V7z M126.8,10.8
	c1.2,0,1.8-0.7,1.8-1.9c0-1.2-0.7-1.9-1.8-1.9h-2v3.8H126.8z"/>
<path fill="#1B75BB" d="M132.6,13.9c0,0,1.1,1.3,2.7,1.3c1,0,1.8-0.6,1.8-1.6c0-2.2-5.2-1.9-5.2-5.2c0-1.6,1.4-2.9,3.4-2.9
	c1.1,0,3.1,0.5,3.1,2v0.9H137V7.8c0-0.6-0.8-1-1.7-1c-1.2,0-1.9,0.6-1.9,1.4c0,2.2,5.2,1.7,5.2,5.2c0,1.6-1.3,3.1-3.4,3.1
	c-2.3,0-3.6-1.6-3.6-1.6L132.6,13.9z"/>
<path fill="#1B75BB" d="M140.7,13.9c0,0,1.1,1.3,2.7,1.3c1,0,1.8-0.6,1.8-1.6c0-2.2-5.2-1.9-5.2-5.2c0-1.6,1.4-2.9,3.4-2.9
	c1.1,0,3.1,0.5,3.1,2v0.9h-1.4V7.8c0-0.6-0.8-1-1.7-1c-1.2,0-1.9,0.6-1.9,1.4c0,2.2,5.2,1.7,5.2,5.2c0,1.6-1.3,3.1-3.4,3.1
	c-2.3,0-3.6-1.6-3.6-1.6L140.7,13.9z"/>
<path fill="#929497" d="M16.9,1.3c-1.5-0.9-3-1.8-4.5-2.6c1.2-0.7,2.3-1.3,3.5-2c0.2-0.1,0.3-0.1,0.5,0C20.5-0.9,24.7,1.6,29,4
	c0.2,0.1,0.3,0.3,0.3,0.5c0,3.1,0,6.2,0,9.3c0,0.2,0,0.3-0.2,0.4c-1.2,0.7-2.3,1.3-3.5,2c-0.1-0.2-0.1-0.4-0.1-0.5c0-3,0-6,0-9
	c0-0.4-0.1-0.6-0.4-0.8c-1.4-0.8-2.8-1.6-4.2-2.4c-0.3-0.2-0.5-0.2-0.7,0c-2.9,1.7-5.9,3.4-8.8,5.1c-0.2,0.1-0.3,0.3-0.3,0.6
	c0,1.4,0,2.9,0,4.3c-0.2,0.1-0.3,0-0.4-0.1c-1-0.6-2-1.2-3-1.7c-0.2-0.1-0.3-0.3-0.3-0.5c0-1.3,0-2.7,0-4c0-0.3,0.1-0.5,0.4-0.6
	c2.9-1.6,5.7-3.3,8.6-5C16.5,1.5,16.6,1.4,16.9,1.3z"/>
<path fill="#1B75BB" d="M20.1,15.2c0,1.4,0,2.7,0,4c0,0.2-0.1,0.3-0.2,0.4c-1.2,0.7-2.4,1.4-3.6,2.1c-0.3,0.2-0.5,0-0.7-0.1
	c-2.9-1.7-5.8-3.3-8.7-5c-0.1-0.1-0.3-0.2-0.5-0.3c0,1.8,0,3.5,0,5.2C6,21.3,5.5,21,5,20.7c-0.6-0.4-1.3-0.8-1.9-1.1
	c-0.2-0.1-0.3-0.3-0.3-0.5c0-4.9,0-9.7,0-14.6c0-0.3,0.1-0.4,0.3-0.5c2.7-1.6,5.4-3.1,8.1-4.7c0.2-0.1,0.3-0.1,0.5,0
	c1.1,0.7,2.3,1.3,3.4,2c-0.1,0.2-0.2,0.2-0.4,0.3c-2.6,1.5-5.2,3-7.9,4.5C6.6,6.2,6.5,6.4,6.5,6.7c0,1.6,0,3.3,0,4.9
	c0,0.3,0.1,0.5,0.3,0.6c3,1.7,5.9,3.4,8.8,5.1c0.3,0.2,0.5,0.1,0.7,0C17.6,16.6,18.9,15.9,20.1,15.2z"/>
<path fill="#1B75BB" d="M7.4,17.8c1.2,0.7,2.3,1.4,3.5,2c1,0.6,2,1.1,2.9,1.7c0.6,0.3,1.1,0.6,1.7,1c0.3,0.2,0.6,0.3,1,0.1
	c1.4-0.8,2.8-1.6,4.2-2.4c0.2-0.1,0.3-0.3,0.3-0.6c0-3.4,0-6.8,0-10.2c0-0.3-0.1-0.5-0.4-0.6c-1.3-0.7-2.5-1.4-3.8-2.2
	c1.2-0.7,2.3-1.3,3.5-2c0.2-0.1,0.3-0.1,0.4,0c1.2,0.7,2.4,1.4,3.6,2.1c0.3,0.1,0.3,0.3,0.3,0.6c0,3.3,0,6.6,0,9.9
	c0,0.2,0,0.3,0,0.6c1.5-0.9,3-1.7,4.5-2.6c0,0.5,0,0.8,0,1.2c0,0.9,0,1.8,0,2.7c0,0.2-0.1,0.4-0.3,0.5c-4.2,2.4-8.4,4.8-12.5,7.2
	c-0.3,0.2-0.6,0.2-0.9,0c-1.9-1.1-3.9-2.2-5.8-3.4C9,23,8.3,22.6,7.6,22.2c-0.2-0.1-0.2-0.2-0.2-0.4C7.4,20.5,7.4,19.2,7.4,17.8z"/>
</svg>
