<?xml version="1.0" encoding="utf-8"?>
<!-- Generator: Adobe Illustrator 17.1.0, SVG Export Plug-In . SVG Version: 6.00 Build 0)  -->
<!DOCTYPE svg PUBLIC "-//W3C//DTD SVG 1.1//EN" "http://www.w3.org/Graphics/SVG/1.1/DTD/svg11.dtd">
<svg version="1.1" id="logo" xmlns="http://www.w3.org/2000/svg" xmlns:xlink="http://www.w3.org/1999/xlink" x="0px" y="0px"
	 width="130.8px" height="27.6px" viewBox="-0.3 -3.8 130.8 27.6" enable-background="new -0.3 -3.8 130.8 27.6"
	 xml:space="preserve">
<path fill="#FFFFFF" d="M31.5,14.2V6H30c-0.2,0-0.3,0.1-0.3,0.3v0.6h-1.6V5.3c0-0.3,0.1-0.5,0.2-0.7c0.1-0.1,0.4-0.2,0.7-0.2h6.8
	c0.3,0,0.6,0.1,0.7,0.2c0.1,0.1,0.2,0.4,0.2,0.7v1.5h-1.6V6.3c0-0.2-0.1-0.3-0.3-0.3h-1.5v8.3H31.5z"/>
<path fill="#FFFFFF" d="M38.4,5.7h-0.9V4.5h4.3c1.7,0,2.9,1.1,2.9,2.9c0,1.6-1.1,2.4-1.8,2.6v0c0,0,0.2,0.1,0.4,0.4l1.2,2.3
	c0.1,0.3,0.4,0.3,0.7,0.3h0.2v1.2h-0.7c-0.8,0-1-0.1-1.4-0.7L42,10.9c-0.2-0.5-0.4-0.5-1-0.5h-1.3v3.9h-1.4V5.7z M41.5,9.2
	c1,0,1.7-0.7,1.7-1.8c0-1.1-0.6-1.7-1.6-1.7h-1.8v3.5H41.5z"/>
<path fill="#FFFFFF" d="M46,13h0.2c0.2,0,0.4-0.1,0.5-0.3l3.1-8.3h1.4l3.1,8.3c0.1,0.2,0.2,0.3,0.5,0.3h0.2v1.2h-0.8
	c-0.7,0-0.9-0.2-1.1-0.8l-0.7-2h-3.6l-0.7,2c-0.2,0.6-0.5,0.8-1.1,0.8H46V13z M51.9,10.3l-1.1-3c-0.2-0.5-0.4-1.4-0.4-1.4h0
	c0,0-0.2,0.9-0.4,1.4l-1.1,3H51.9z"/>
<path fill="#FFFFFF" d="M66.5,11.9c0,0,1,1.2,2.4,1.2c0.9,0,1.7-0.6,1.7-1.4c0-2-4.7-1.7-4.7-4.8c0-1.5,1.3-2.6,3.1-2.6
	c1,0,2.8,0.5,2.8,1.8v0.8h-1.3V6.4c0-0.5-0.7-0.9-1.5-0.9c-1,0-1.7,0.6-1.7,1.3c0,2,4.7,1.5,4.7,4.7c0,1.5-1.2,2.8-3.1,2.8
	c-2.1,0-3.2-1.4-3.2-1.4L66.5,11.9z"/>
<path fill="#FFFFFF" d="M55.7,13.1h0.6c0.2,0,0.3-0.1,0.3-0.3V4.5h1.3l4.3,6.2C62.5,11.2,63,12,63,12h0c0,0-0.1-0.8-0.1-1.3V5.4
	c0-0.6,0.3-0.9,0.9-0.9h1.4v1.2h-0.6c-0.2,0-0.3,0.1-0.3,0.3v8.3h-1.2l-4.3-6.2c-0.4-0.5-0.8-1.3-0.8-1.3h0c0,0,0.1,0.8,0.1,1.3v5.3
	c0,0.6-0.3,0.9-0.9,0.9h-1.4V13.1z"/>
<path fill="#FFFFFF" d="M74.1,6c0-0.2-0.1-0.3-0.3-0.3h-0.6V4.5h1.4c0.6,0,0.9,0.3,0.9,0.9v7.4c0,0.2,0.1,0.3,0.3,0.3h2.7
	c0.2,0,0.3-0.1,0.3-0.3v-0.6h1.3v1.2c0,0.6-0.3,0.9-0.9,0.9H75c-0.6,0-0.9-0.3-0.9-0.9V6z"/>
<path fill="#FFFFFF" d="M80.5,13h0.2c0.2,0,0.4-0.1,0.5-0.3l3.1-8.3h1.4l3.1,8.3c0.1,0.2,0.2,0.3,0.5,0.3h0.2v1.2h-0.8
	c-0.7,0-0.9-0.2-1.1-0.8l-0.7-2h-3.6l-0.7,2c-0.2,0.6-0.5,0.8-1.1,0.8h-0.8V13z M86.4,10.3l-1.1-3c-0.2-0.5-0.4-1.4-0.4-1.4h0
	c0,0-0.2,0.9-0.4,1.4l-1.1,3H86.4z"/>
<path fill="#FFFFFF" d="M92,5.7h-2c-0.2,0-0.3,0.1-0.3,0.3v0.6h-1.2V5.3c0-0.6,0.2-0.8,0.8-0.8h6.7c0.6,0,0.8,0.2,0.8,0.8v1.3h-1.2
	V6c0-0.2-0.1-0.3-0.3-0.3h-2v8.6H92V5.7z"/>
<path fill="#FFFFFF" d="M102.3,4.3c2.8,0,5,2.2,5,5c0,2.9-2.2,5.1-5,5.1c-2.8,0-5-2.2-5-5.1C97.3,6.5,99.5,4.3,102.3,4.3z
	 M102.3,13.1c2,0,3.6-1.7,3.6-3.8c0-2.1-1.6-3.7-3.6-3.7c-2,0-3.6,1.6-3.6,3.7C98.7,11.4,100.3,13.1,102.3,13.1z"/>
<path fill="#FFFFFF" d="M109.2,5.7h-0.9V4.5h4.3c1.7,0,2.9,1.1,2.9,2.9c0,1.6-1.1,2.4-1.8,2.6v0c0,0,0.2,0.1,0.4,0.4l1.2,2.3
	c0.1,0.3,0.4,0.3,0.7,0.3h0.2v1.2h-0.7c-0.8,0-1-0.1-1.4-0.7l-1.3-2.6c-0.2-0.5-0.4-0.5-1-0.5h-1.3v3.9h-1.4V5.7z M112.4,9.2
	c1,0,1.7-0.7,1.7-1.8c0-1.1-0.6-1.7-1.6-1.7h-1.8v3.5H112.4z"/>
<path fill="#FFFFFF" d="M117.6,12c0,0,1,1.2,2.4,1.2c0.9,0,1.7-0.6,1.7-1.4c0-2-4.7-1.7-4.7-4.8c0-1.5,1.3-2.6,3.1-2.6
	c1,0,2.8,0.5,2.8,1.8v0.8h-1.3V6.4c0-0.5-0.7-0.9-1.5-0.9c-1,0-1.7,0.6-1.7,1.3c0,2,4.7,1.5,4.7,4.7c0,1.5-1.2,2.8-3.1,2.8
	c-2.1,0-3.2-1.4-3.2-1.4L117.6,12z"/>
<path fill="#FFFFFF" d="M125,12c0,0,1,1.2,2.4,1.2c0.9,0,1.7-0.6,1.7-1.4c0-2-4.7-1.7-4.7-4.8c0-1.5,1.3-2.6,3.1-2.6
	c1,0,2.8,0.5,2.8,1.8v0.8H129V6.4c0-0.5-0.7-0.9-1.5-0.9c-1,0-1.7,0.6-1.7,1.3c0,2,4.7,1.5,4.7,4.7c0,1.5-1.2,2.8-3.1,2.8
	c-2.1,0-3.2-1.4-3.2-1.4L125,12z"/>
<path fill="#FFFFFF" d="M12.5,0.5c-1.4-0.8-2.8-1.6-4.1-2.4c1.1-0.6,2.1-1.2,3.1-1.8c0.2-0.1,0.3-0.1,0.4,0
	c3.8,2.2,7.7,4.4,11.5,6.7c0.2,0.1,0.3,0.3,0.3,0.5c0,2.8,0,5.6,0,8.5c0,0.1,0,0.3-0.1,0.4c-1.1,0.6-2.1,1.2-3.2,1.8
	c-0.1-0.2-0.1-0.3-0.1-0.5c0-2.7,0-5.4,0-8.1c0-0.3-0.1-0.5-0.4-0.7c-1.3-0.7-2.5-1.4-3.8-2.2c-0.2-0.1-0.4-0.2-0.7,0
	c-2.7,1.6-5.3,3.1-8,4.6C7.3,7.4,7.2,7.5,7.2,7.8c0,1.3,0,2.6,0,3.9c-0.1,0.1-0.2,0-0.3-0.1C5.9,11.1,5,10.5,4.1,10
	C3.9,9.9,3.8,9.8,3.8,9.5c0-1.2,0-2.4,0-3.7c0-0.3,0.1-0.4,0.3-0.5c2.6-1.5,5.2-3,7.8-4.5C12.1,0.7,12.3,0.6,12.5,0.5z"/>
<path fill="#FFFFFF" d="M15.4,13.1c0,1.3,0,2.5,0,3.7c0,0.2-0.1,0.3-0.2,0.3c-1.1,0.6-2.2,1.3-3.3,1.9c-0.3,0.1-0.4,0-0.6-0.1
	c-2.6-1.5-5.3-3-7.9-4.5c-0.1-0.1-0.2-0.1-0.4-0.2c0,1.6,0,3.1,0,4.8c-0.5-0.3-0.9-0.5-1.3-0.8c-0.6-0.3-1.2-0.7-1.8-1
	c-0.2-0.1-0.3-0.2-0.3-0.5c0-4.4,0-8.8,0-13.2c0-0.2,0.1-0.4,0.3-0.5c2.5-1.4,4.9-2.8,7.4-4.3c0.2-0.1,0.3-0.1,0.4,0
	c1,0.6,2.1,1.2,3.1,1.8c-0.1,0.2-0.2,0.2-0.3,0.3C8.2,2.1,5.8,3.5,3.4,4.9C3.1,5,3,5.1,3,5.4c0,1.5,0,3,0,4.5c0,0.3,0.1,0.4,0.3,0.6
	c2.7,1.5,5.4,3.1,8,4.6c0.3,0.2,0.4,0.1,0.7,0C13.2,14.4,14.3,13.8,15.4,13.1z"/>
<path fill="#FFFFFF" d="M3.8,15.5C4.9,16.2,6,16.7,7,17.3c0.9,0.5,1.8,1,2.7,1.5c0.5,0.3,1,0.6,1.5,0.9c0.3,0.2,0.6,0.3,0.9,0.1
	c1.3-0.8,2.5-1.5,3.8-2.2c0.2-0.1,0.3-0.3,0.3-0.5c0-3.1,0-6.2,0-9.3c0-0.3-0.1-0.4-0.3-0.5c-1.1-0.6-2.3-1.3-3.4-2
	c1.1-0.6,2.1-1.2,3.2-1.8c0.2-0.1,0.3-0.1,0.4,0c1.1,0.6,2.2,1.3,3.3,1.9c0.2,0.1,0.3,0.3,0.3,0.5c0,3,0,6,0,9c0,0.2,0,0.3,0,0.6
	c1.4-0.8,2.7-1.6,4.1-2.4c0,0.4,0,0.8,0,1.1c0,0.8,0,1.7,0,2.5c0,0.2-0.1,0.3-0.3,0.5c-3.8,2.2-7.6,4.4-11.4,6.6
	c-0.3,0.2-0.5,0.1-0.8,0c-1.8-1-3.5-2-5.3-3c-0.7-0.4-1.3-0.8-2-1.1c-0.1-0.1-0.2-0.2-0.2-0.3C3.8,18,3.8,16.8,3.8,15.5z"/>
</svg>
